<svg id="Layer_1" data-name="Layer 1" xmlns="http://www.w3.org/2000/svg" xmlns:xlink="http://www.w3.org/1999/xlink" viewBox="0 0 292 215"><defs><style>.cls-1{fill:none;}.cls-2{fill:#07bbc7;}.cls-3{fill:#5dd8db;}.cls-4{clip-path:url(#clip-path);}.cls-5{fill:#fff;}</style><clipPath id="clip-path"><circle class="cls-1" cx="483.25" cy="107.41" r="94.76"/></clipPath></defs><rect class="cls-2" x="58.61" y="21.98" width="198.86" height="171.37" transform="translate(265.7 -50.38) rotate(90)"/><rect class="cls-3" x="-36.59" y="98.14" width="198.86" height="19.04" transform="translate(170.5 44.82) rotate(90)"/><rect class="cls-3" x="1.49" y="98.14" width="198.86" height="19.04" transform="translate(208.58 6.74) rotate(90)"/><rect class="cls-3" x="115.73" y="98.14" width="198.86" height="19.04" transform="translate(322.83 -107.5) rotate(90)"/><rect class="cls-3" x="39.57" y="98.14" width="198.86" height="19.04" transform="translate(246.66 -31.34) rotate(90)"/><rect class="cls-3" x="77.65" y="98.14" width="198.86" height="19.04" transform="translate(284.74 -69.42) rotate(90)"/><g class="cls-4"><path class="cls-5" d="M546,92.31l-.48-.16c-7.79-2.67-15.53-5.47-23.17-8.52-2-.79-4.24-1.28-5.74-2.88-1.88-2-2.77-4.91-3.39-7.52-.66-2.83-1.26-5.32-3-7.78a19,19,0,0,0-6.44-5.7c-2.51-1.39-5.63-1.65-7.85-3.56a13.74,13.74,0,0,1-2.29-3A14.65,14.65,0,0,0,482,47s-2.67-.54-11,1.74a38.45,38.45,0,0,1-5.35.62c-5.43.29-10.66-1-15.33,2.46s-5.31,9.89-4.57,15.34l-20.91,57.72H280.19c-3.28,0-6.73.6-9.86-.63a27.32,27.32,0,0,1-3.13-1.51,66,66,0,0,1-10.67-7.6,146.38,146.38,0,0,1-14.68-14.47c-4.29-4.83-7.7-10.74-12.42-15.13-1.68-1.56-3.85-3.11-6.26-3-5.67.16-7.44,7.1-7.4,11.7a29.43,29.43,0,0,0,1.64,9.15C221.05,114.2,229.46,123,238.19,130a164.43,164.43,0,0,0,21.28,14s6.79,3.93,7.68,4.11c-.56-.11-2.76,5.28-2.94,5.69A57,57,0,0,0,260.14,170a65.58,65.58,0,0,0,.51,17.08,60.46,60.46,0,0,0,6.26,19.65,17.55,17.55,0,0,1,2.07,7.11,12.7,12.7,0,0,1-.52,4.46c-.22.69-1.53,4.28-2.38,4.28H328s9.1-7.14,14.27-14.46c0,0,46.76,17.67,92.08,10.35l.36,4.11H470.4s1.6-6.78,7.49-18c0,0,16.77-33,18.56-73.17,8.39-.08,17.23.44,25.45-1.46a56.53,56.53,0,0,0,15.4-5.84c6.94-4,12.55-10.47,14.63-18.29C553.41,100.26,551.77,94.43,546,92.31Zm-54.95-22c-2.64,4.83-6.09,9.14-6,15,.06,2.5-.16,4.91-1.83,6.92-3.09,3.73-8.18,3.54-12,1.16a19.58,19.58,0,0,1-4.79-4.82,44.6,44.6,0,0,0-6-5.93c-12.18-8.43-12-15-12-15-.66-4.88-.15-10.54,4.09-13.73s8.86-1.94,13.71-2.2a35,35,0,0,0,4.79-.55c7.43-2,9.82-1.56,9.82-1.56a13.1,13.1,0,0,1,10.43,5.55c.66,1,1.32,1.87,1.86,2.79C495.57,62.06,493.07,66.6,491.05,70.31ZM504.38,84c-1.7,2.25-4.22,3.23-5.61,2.17s-1.15-3.74.55-6S503.54,77,504.93,78,506.08,81.75,504.38,84Zm45.36,22.43c-2.15,2.4-4.55-1.17-6.19-2.34-2.16-1.54-5.51-1.44-6-4.81-.46-2.87,2.84-4.16,5.51-4.47a9.72,9.72,0,0,1,1.67-.06c3.82.2,5.95,2.56,6.23,6.31C551,102.68,550.9,105.14,549.74,106.44Z"/></g></svg>