<svg id="Layer_1" data-name="Layer 1" xmlns="http://www.w3.org/2000/svg" xmlns:xlink="http://www.w3.org/1999/xlink"
  viewBox="0 0 618.51 215">
  <defs>
    <style>
      .cls-1 {
        fill: none;
      }

      .cls-2 {
        fill: #4d464a;
      }

      .cls-3 {
        fill: #75696a;
      }

      .cls-4 {
        clip-path: url(#clip-path);
      }
    </style>
    <clipPath id="clip-path">
      <circle class="cls-1" cx="93.91" cy="107.34" r="66.04" />
    </clipPath>
  </defs>
  <rect class="cls-2" x="233.22" y="-186.13" width="152.06" height="587.26" rx="69.48"
    transform="translate(416.76 -201.76) rotate(90)" />
  <circle class="cls-3" cx="93.91" cy="107.34" r="66.04" />
  <g class="cls-4">
    <path class="cls-2"
      d="M70.38,151.52c4.34-2.72,7.45-6.39,8.52-11.55a41.16,41.16,0,0,0,.41-7.36c0-1.23-.28-2.59.15-3.66,1.28-3.15,0-5-2.5-6.78-1.91-1.34-3.1-3.44-4.24-5.47-.56-1-1.13-1.88-2.53-1.5-3,.83-6,0-8.95-.32-6.57-.74-12.16,1.07-16.53,6.2-2.15,2.52-2,3.58,1.11,4.72a40.76,40.76,0,0,1,9.44,4.86c5.87,4.17,9.07,10.08,11,16.82.26.92.37,1.89.7,2.78C67.66,152.21,68.61,152.63,70.38,151.52Z" />
    <path class="cls-2"
      d="M95.47,125.78c13-.77,23.34-7.12,31.82-16.7,2.18-2.47,1.92-3.32-1-5a46.74,46.74,0,0,1-15.93-14.5,23.58,23.58,0,0,1-2-3.58c-.41-.93-1.25-2.18.25-2.8,1.21-.51,1.56.73,2,1.57.06.12.09.26.15.38,3.83,7.43,9.79,12.73,17,16.74,2.9,1.61,3.77,1.29,5-1.65,3.95-9.17,4.1-18.59,1.73-28.15a5.33,5.33,0,0,0-4.08-4.17c-1.72-.42-3.48-.7-5.23-1a48.57,48.57,0,0,0-22.74.53c-16.19,4.14-28.68,18.26-30.19,34.1C70.87,115.87,81,126.64,95.47,125.78Zm24.59-47.71a2.86,2.86,0,0,1-2.1-3.49,2.62,2.62,0,0,1,3.23-1.78,2.83,2.83,0,0,1,2,3.46A2.67,2.67,0,0,1,120.06,78.07Z" />
  </g>
</svg>