<svg id="Layer_1" data-name="Layer 1" xmlns="http://www.w3.org/2000/svg" viewBox="0 0 292 215"><defs><style>.cls-1{fill:#ff6f00;}</style></defs><path class="cls-1" d="M144.66,107.53h1.13a98.16,98.16,0,0,1-97.74,98.13A98.15,98.15,0,0,1,144.66,107.53Z"/><path class="cls-1" d="M146.21,107.54h1.55a98.13,98.13,0,0,1,96.61,98.13H244a98.16,98.16,0,0,1-98.16-98.13Z"/><path class="cls-1" d="M147.76,107.53c-.52,0-1,0-1.55,0h-.42l-1.13,0A98.17,98.17,0,0,1,48.05,9.39v0a98.16,98.16,0,0,1,97.74,98.15A98.16,98.16,0,0,1,244,9.34h.42v0A98.16,98.16,0,0,1,147.76,107.53Z"/><path class="cls-1" d="M48.05,9.35h-.42"/><path class="cls-1" d="M147.76,107.53h-2v0h.42C146.73,107.5,147.24,107.52,147.76,107.53Z"/><path class="cls-1" d="M145.79,107.51v0h-1.13Z"/></svg>