<svg id="Layer_1" data-name="Layer 1" xmlns="http://www.w3.org/2000/svg" xmlns:xlink="http://www.w3.org/1999/xlink"
    viewBox="0 0 618.51 215">
    <defs>
        <style>
            .cls-1 {
                fill: none;
            }

            .cls-2 {
                fill: rgba(255, 255, 255, 0.25);
            }

            .cls-3 {
                fill: #ff6f00;
            }

            .cls-4 {
                clip-path: url(#clip-path);
            }

            .cls-5 {
                fill: rgba(255, 255, 255, 0.25);
            }
        </style>
        <clipPath id="clip-path">
            <circle class="cls-1" cx="93.91" cy="107.34" r="66.04" />
        </clipPath>
    </defs>
    <rect class="cls-2" x="233.22" y="-186.13" width="152.06" height="587.26" rx="69.48"
        transform="translate(416.76 -201.76) rotate(90)" />
    <circle class="cls-3" cx="93.91" cy="107.34" r="66.04" />
    <g class="cls-4">
        <path class="cls-5"
            d="M105.92,123.62c.14-.79.21-1.24.29-1.68,1-5.82-1.13-10.37-6.4-13.06-3.44-1.76-7.06-3.18-10.59-4.79a12.2,12.2,0,0,0-9.63,0,30.45,30.45,0,0,0-8.17,4.69,22.1,22.1,0,0,1-16.89,4.73,6.48,6.48,0,0,0-5.66,1.77,13.85,13.85,0,0,0-3.91,13c1.2,6.06,5.63,9.44,10.78,12,3.66,1.85,7.69,2.58,11.6,3.68,3.52,1,6.77,2.46,9.08,5.49a13.77,13.77,0,0,0,3.31,3.24,71.78,71.78,0,0,0,12.76,6.39,19.16,19.16,0,0,0,11.52,1.5c3.84-.82,6.78-2.77,8.23-6.6s1-7.37-.15-11-3.28-7.17-5-10.72C105.65,129.39,105,126.45,105.92,123.62Zm1.66-26.83a15.75,15.75,0,0,0,2.1,7,8,8,0,0,0,8.86,4,19.3,19.3,0,0,0,12.77-8.47c3.68-5.3,4.46-11.48,4.88-17.72a17.59,17.59,0,0,0-1.39-9.14c-2.17-4.47-6.24-6.37-10.81-4.89s-7.8,5-10.78,8.61c-.32.41,0,.49.22.67.95.8,1.89,1.62,2.85,2.42.48.4,1.17.86.69,1.49s-1.12,0-1.63-.28c-1-.57-1.88-1.19-2.83-1.76-.42-.25-.76-.47-1.18.2a26,26,0,0,0-4.1,12.18,10.94,10.94,0,0,0,.35,4.58,5,5,0,0,1,2.4-1c.51-.1,1.13-.19,1.35.49a1.06,1.06,0,0,1-.85,1.42A4,4,0,0,1,107.58,96.79Zm4.26-29.94a21.78,21.78,0,0,0,.37-2.24c.25-3.45-.77-6.44-3.81-8.27A11.05,11.05,0,0,0,99,55.42c-4,1.29-7.12,3.95-10.15,6.7-6.31,5.75-9.51,12.79-8.77,21.41a10.79,10.79,0,0,0,16.69,8.39c3.23-2,5.41-4.94,7.51-8A48,48,0,0,0,111.84,66.85ZM75.61,81.2c.25-1.45.47-2.91.75-4.36,1.21-6.25-4.63-10.44-10.3-9.58a13,13,0,0,0-9.32,6.67c-3.47,5.81-4.73,12.28-4.84,19a10.55,10.55,0,0,0,1.6,5.85,4.54,4.54,0,0,0,3.83,2.5,5.86,5.86,0,0,1,2.88,1c2.47,1.53,4.92,1.74,7.3-.17a13.73,13.73,0,0,0,3.78-5.41A67.24,67.24,0,0,0,75.61,81.2Zm67.13,40.57a60.46,60.46,0,0,0,.82-8.46,13.63,13.63,0,0,0-.68-5.4c-.71-2.16-2.16-3-4.43-2.67A25.83,25.83,0,0,0,127,110c-5.18,3.6-9.6,7.89-11.75,14-1.77,5.09.39,11.44,7,13.07a15.1,15.1,0,0,0,9.16-.69c3.41-1.29,6.5-3.06,8.47-6.29A20.92,20.92,0,0,0,142.74,121.77Z" />
        <path class="cls-2"
            d="M105.92,123.62c-.93,2.83-.27,5.77,1.16,8.68,1.73,3.55,3.83,6.93,5,10.72s1.54,7.32.15,11-4.39,5.78-8.23,6.6a19.16,19.16,0,0,1-11.52-1.5,71.78,71.78,0,0,1-12.76-6.39,13.77,13.77,0,0,1-3.31-3.24c-2.31-3-5.56-4.51-9.08-5.49-3.91-1.1-7.94-1.83-11.6-3.68-5.15-2.6-9.58-6-10.78-12a13.85,13.85,0,0,1,3.91-13,6.48,6.48,0,0,1,5.66-1.77,22.1,22.1,0,0,0,16.89-4.73,30.45,30.45,0,0,1,8.17-4.69,12.2,12.2,0,0,1,9.63,0c3.53,1.61,7.15,3,10.59,4.79,5.27,2.69,7.4,7.24,6.4,13.06C106.13,122.38,106.06,122.83,105.92,123.62ZM71.54,137.55c1.65.33,2.68-.17,2.95-1.45.4-1.83-1-3.46-3.44-3.89-1.24-.21-1.6.62-1.79,1.66C68.82,136.18,69.38,137.11,71.54,137.55Zm22.76-22A2.16,2.16,0,0,0,97,113.82c.16-1.1-.81-2.75-1.71-2.89-1.43-.24-3.11.77-3.3,2A2.48,2.48,0,0,0,94.3,115.58Zm9.88,26.52a2.1,2.1,0,0,0-2.6,1c-.57,1,.63,1.36,1.12,1.95a5,5,0,0,0,.61.51c1.2,1,2,.8,2.67-.61A2,2,0,0,0,104.18,142.1Zm-8.91-6.9c.17-1.07-.81-2.87-1.61-2.85a1.83,1.83,0,0,0-1.8,1.52,2.08,2.08,0,0,0,1.79,2.26C94.47,136.26,95.21,136.22,95.27,135.2ZM84.88,110a12.27,12.27,0,0,0,.93-4.92c0-.41-.06-.82-.58-.9a.5.5,0,0,0-.6.4C84.29,106.43,84,108.24,84.88,110ZM95.6,141.66a1.35,1.35,0,0,0-1.19-1.37c-.36-.07-.91-.07-.89.51s.28,1.45,1.12,1.62C95.15,142.53,95.42,142.12,95.6,141.66Zm9.72-2c-.08-.4.12-1.07-.69-1.23s-.85.32-.9.84.13,1.18.79,1.33S105.22,140.22,105.32,139.64Zm3.94,6.34c.46,0,.92-.2,1-.67a1,1,0,0,0-.82-1.14c-.56-.14-.83.27-.91.7A.94.94,0,0,0,109.26,146ZM97.93,127.46c0-.65.35-1.69-.23-1.79-.81-.14-.51,1-.79,1.53s-.16,1.08.4,1.19S97.72,127.78,97.93,127.46Zm-39,9.5c-.18-.25.49-.81-.31-1-.6-.13-.82.31-.91.73s0,1,.59,1.16S58.81,137.42,58.92,137Zm11.25-22.75c.24-.68.71-1.17.28-1.8-.15-.2-.42-.12-.56.09C69.51,113,69.52,113.55,70.17,114.21Z" />
        <path class="cls-2"
            d="M107.58,96.79a4,4,0,0,0,2.9-.1,1.06,1.06,0,0,0,.85-1.42c-.22-.68-.84-.59-1.35-.49a5,5,0,0,0-2.4,1,10.94,10.94,0,0,1-.35-4.58A26,26,0,0,1,111.33,79c.42-.67.76-.45,1.18-.2.95.57,1.88,1.19,2.83,1.76.51.31,1.17.88,1.63.28s-.21-1.09-.69-1.49c-1-.8-1.9-1.62-2.85-2.42-.21-.18-.54-.26-.22-.67,3-3.64,6.12-7.11,10.78-8.61s8.64.42,10.81,4.89a17.59,17.59,0,0,1,1.39,9.14c-.42,6.24-1.2,12.42-4.88,17.72a19.3,19.3,0,0,1-12.77,8.47,8,8,0,0,1-8.86-4A15.75,15.75,0,0,1,107.58,96.79Z" />
        <path class="cls-2"
            d="M111.84,66.85A48,48,0,0,1,104.27,84c-2.1,3-4.28,6-7.51,8a10.79,10.79,0,0,1-16.69-8.39c-.74-8.62,2.46-15.66,8.77-21.41,3-2.75,6.13-5.41,10.15-6.7a11.05,11.05,0,0,1,9.41.92c3,1.83,4.06,4.82,3.81,8.27A21.78,21.78,0,0,1,111.84,66.85Zm-5.35-3.39c.73,0,1.5,0,1.66-.83s-.41-1.07-1.09-1.22a1.87,1.87,0,0,1-.81-.4c-1-.82-1.85-.07-2.73.18-.38.1-.4.5,0,.7C104.48,62.45,105.51,63,106.49,63.46ZM96.34,68a5.35,5.35,0,0,0-.22-2.78c-.1-.3-.3-.81-.84-.65s-.46.47-.48.86c0,1.07-.11,2.14-.19,3.2,0,.42-.07.86.4,1s.82-.25,1-.63A5,5,0,0,0,96.34,68ZM88.66,84.52c0-.8,0-2-1-2.1s-1,1-1.13,1.79a1.8,1.8,0,0,0,0,.52c0,.59-.17,1.44.5,1.63.85.25,1.07-.71,1.47-1.25A2.24,2.24,0,0,0,88.66,84.52Z" />
        <path class="cls-2"
            d="M75.61,81.2a67.24,67.24,0,0,1-4.32,15.44,13.73,13.73,0,0,1-3.78,5.41c-2.38,1.91-4.83,1.7-7.3.17a5.86,5.86,0,0,0-2.88-1,4.54,4.54,0,0,1-3.83-2.5,10.55,10.55,0,0,1-1.6-5.85c.11-6.69,1.37-13.16,4.84-19a13,13,0,0,1,9.32-6.67c5.67-.86,11.51,3.33,10.3,9.58C76.08,78.29,75.86,79.75,75.61,81.2Zm-8.1,15.5c-1.11.46-1.66,1-1.76,2a.75.75,0,0,0,.43.88c.33.09.57-.27.67-.53C67.09,98.34,67.25,97.62,67.51,96.7ZM67.11,72c.72,0,1.52,0,1.93-.77.18-.32-.17-.6-.51-.59a2.41,2.41,0,0,0-2.14.77C66.16,71.77,66.79,71.86,67.11,72Z" />
        <path class="cls-2"
            d="M142.74,121.77a20.92,20.92,0,0,1-2.81,8.38c-2,3.23-5.06,5-8.47,6.29a15.1,15.1,0,0,1-9.16.69c-6.62-1.63-8.78-8-7-13.07,2.15-6.13,6.57-10.42,11.75-14a25.83,25.83,0,0,1,11.41-4.8c2.27-.3,3.72.51,4.43,2.67a13.63,13.63,0,0,1,.68,5.4A60.46,60.46,0,0,1,142.74,121.77Zm-8.54,2.41c-.11-.84-.34-1.58-1.49-1.76s-1.52.69-1.71,1.52a1.3,1.3,0,0,0,1.24,1.78C133.31,125.83,133.89,125.26,134.2,124.18Zm-2,8c.8-.05,1.73-.07,1.89-1.16a1.65,1.65,0,0,0-1.15-1.85c-.69-.24-1.87.88-2,1.81S131.51,131.94,132.17,132.15Zm-5.57-6.35c.61,0,1.35.15,1.5-.68.12-.6-.41-.87-.93-.9-.74,0-1.77-.26-2,.63C125.06,125.47,126,125.61,126.6,125.8Z" />
        <path class="cls-5"
            d="M71.54,137.55c-2.16-.44-2.72-1.37-2.28-3.68.19-1,.55-1.87,1.79-1.66,2.43.43,3.84,2.06,3.44,3.89C74.22,137.38,73.19,137.88,71.54,137.55Z" />
        <path class="cls-5"
            d="M94.3,115.58A2.48,2.48,0,0,1,92,112.9c.19-1.2,1.87-2.21,3.3-2,.9.14,1.87,1.79,1.71,2.89A2.16,2.16,0,0,1,94.3,115.58Z" />
        <path class="cls-5"
            d="M104.18,142.1a2,2,0,0,1,1.8,2.81c-.68,1.41-1.47,1.61-2.67.61a5,5,0,0,1-.61-.51c-.49-.59-1.69-.95-1.12-1.95A2.1,2.1,0,0,1,104.18,142.1Z" />
        <path class="cls-5"
            d="M95.27,135.2c-.06,1-.8,1.06-1.62.93a2.08,2.08,0,0,1-1.79-2.26,1.83,1.83,0,0,1,1.8-1.52C94.46,132.33,95.44,134.13,95.27,135.2Z" />
        <path class="cls-5"
            d="M84.88,110c-.88-1.8-.59-3.61-.25-5.42a.5.5,0,0,1,.6-.4c.52.08.58.49.58.9A12.27,12.27,0,0,1,84.88,110Z" />
        <path class="cls-5"
            d="M95.6,141.66c-.18.46-.45.87-1,.76-.84-.17-1.09-.89-1.12-1.62s.53-.58.89-.51A1.35,1.35,0,0,1,95.6,141.66Z" />
        <path class="cls-5"
            d="M105.32,139.64c-.1.58-.19,1.09-.8.94s-.84-.71-.79-1.33.22-1,.9-.84S105.24,139.24,105.32,139.64Z" />
        <path class="cls-5"
            d="M109.26,146a.94.94,0,0,1-.74-1.11c.08-.43.35-.84.91-.7a1,1,0,0,1,.82,1.14C110.18,145.78,109.72,146,109.26,146Z" />
        <path class="cls-5"
            d="M97.93,127.46c-.21.32.07,1.07-.62.93s-.61-.77-.4-1.19,0-1.67.79-1.53C98.28,125.77,97.94,126.81,97.93,127.46Z" />
        <path class="cls-5"
            d="M58.92,137c-.11.46,0,1-.63.91s-.71-.66-.59-1.16.31-.86.91-.73C59.41,136.15,58.74,136.71,58.92,137Z" />
        <path class="cls-5"
            d="M70.17,114.21c-.65-.66-.66-1.18-.28-1.71.14-.21.41-.29.56-.09C70.88,113,70.41,113.53,70.17,114.21Z" />
        <path class="cls-5"
            d="M106.49,63.46c-1-.51-2-1-3-1.57-.36-.2-.34-.6,0-.7.88-.25,1.75-1,2.73-.18a1.87,1.87,0,0,0,.81.4c.68.15,1.23.49,1.09,1.22S107.22,63.42,106.49,63.46Z" />
        <path class="cls-5"
            d="M96.34,68A5,5,0,0,1,96,69c-.2.38-.46.83-1,.63s-.43-.6-.4-1c.08-1.06.15-2.13.19-3.2,0-.39.06-.74.48-.86s.74.35.84.65A5.35,5.35,0,0,1,96.34,68Z" />
        <path class="cls-5"
            d="M88.66,84.52a2.24,2.24,0,0,1-.17.59c-.4.54-.62,1.5-1.47,1.25-.67-.19-.45-1-.5-1.63a1.8,1.8,0,0,1,0-.52c.18-.75.14-1.93,1.13-1.79S88.64,83.72,88.66,84.52Z" />
        <path class="cls-5"
            d="M67.51,96.7c-.26.92-.42,1.64-.66,2.32-.1.26-.34.62-.67.53a.75.75,0,0,1-.43-.88C65.85,97.75,66.4,97.16,67.51,96.7Z" />
        <path class="cls-5"
            d="M67.11,72c-.32-.16-1-.25-.72-.59a2.41,2.41,0,0,1,2.14-.77c.34,0,.69.27.51.59C68.63,72,67.83,72,67.11,72Z" />
        <path class="cls-5"
            d="M134.2,124.18c-.31,1.08-.89,1.65-2,1.54a1.3,1.3,0,0,1-1.24-1.78c.19-.83.42-1.73,1.71-1.52S134.09,123.34,134.2,124.18Z" />
        <path class="cls-5"
            d="M132.17,132.15c-.66-.21-1.32-.37-1.23-1.2s1.28-2,2-1.81a1.65,1.65,0,0,1,1.15,1.85C133.9,132.08,133,132.1,132.17,132.15Z" />
        <path class="cls-5"
            d="M126.6,125.8c-.58-.19-1.54-.33-1.4-1,.2-.89,1.23-.66,2-.63.52,0,1,.3.93.9C128,126,127.21,125.8,126.6,125.8Z" />
    </g>
</svg>