<svg id="Layer_1" data-name="Layer 1" xmlns="http://www.w3.org/2000/svg" viewBox="0 0 292 215"><defs><style>.cls-1{fill:#fffffc;}.cls-2{fill:#07bbc7;}</style></defs><path class="cls-1" d="M171.23,138.57c.24-1.4.37-2.18.51-2.95,1.75-10.28-2-18.3-11.28-23-6.08-3.1-12.46-5.61-18.68-8.44-5.68-2.58-11.32-2.07-17,0a53.7,53.7,0,0,0-14.42,8.28,38.91,38.91,0,0,1-29.77,8.32,11.41,11.41,0,0,0-10,3.14,24.43,24.43,0,0,0-6.9,22.94c2.12,10.68,9.93,16.63,19,21.23,6.46,3.26,13.57,4.54,20.46,6.47,6.2,1.75,11.93,4.35,16,9.7a24.74,24.74,0,0,0,5.84,5.71c7,4.71,14.75,8.05,22.5,11.27,6.48,2.69,13.24,4.14,20.31,2.64,6.78-1.45,12-4.88,14.52-11.64,2.46-6.52,1.72-13-.27-19.42-2.08-6.7-5.78-12.66-8.83-18.9C170.76,148.74,169.58,143.55,171.23,138.57Zm2.91-47.3a28,28,0,0,0,3.71,12.42c3.73,6.33,9.3,8.22,15.62,7.13,9.6-1.65,17-7.06,22.52-14.93,6.49-9.35,7.87-20.25,8.6-31.26.37-5.55,0-11-2.44-16.11-3.84-7.88-11-11.23-19.07-8.62-8.21,2.65-13.75,8.76-19,15.19-.57.71,0,.85.39,1.17,1.68,1.42,3.33,2.86,5,4.27.85.71,2.07,1.52,1.22,2.62s-2,.06-2.88-.48c-1.68-1-3.31-2.1-5-3.11-.74-.44-1.33-.83-2.07.35a45.8,45.8,0,0,0-7.23,21.48,19.48,19.48,0,0,0,.62,8.07,9,9,0,0,1,4.24-1.74c.9-.17,2-.33,2.38.87a1.87,1.87,0,0,1-1.5,2.5C177.71,91.51,176.1,92.09,174.14,91.27Zm7.52-52.79a38.66,38.66,0,0,0,.66-4c.43-6.07-1.37-11.34-6.72-14.57-5.15-3.11-10.81-3.47-16.6-1.62-7.09,2.27-12.56,7-17.9,11.82C130,40.26,124.34,52.69,125.65,67.89c1.27,14.83,16.68,22.54,29.42,14.78,5.7-3.47,9.54-8.7,13.24-14A84.3,84.3,0,0,0,181.66,38.48Zm-63.88,25.3c.44-2.57.83-5.14,1.32-7.69,2.13-11-8.17-18.42-18.17-16.9C93.56,40.31,88.19,44.77,84.51,51,78.4,61.21,76.16,72.61,76,84.41a18.54,18.54,0,0,0,2.82,10.31c1.59,2.5,3.53,4.32,6.75,4.41a10.31,10.31,0,0,1,5.09,1.71c4.34,2.69,8.68,3.07,12.87-.3,3.13-2.53,5.09-6,6.67-9.54C114,82.29,116.14,73.1,117.78,63.78ZM236.14,135.3c1.09-4.82,1.05-9.89,1.45-14.91a24.16,24.16,0,0,0-1.19-9.52c-1.26-3.8-3.81-5.24-7.82-4.71-7.49,1-14,4.23-20.12,8.46-9.14,6.35-16.93,13.92-20.71,24.73-3.13,9,.68,20.17,12.36,23a26.62,26.62,0,0,0,16.15-1.21c6-2.29,11.45-5.39,14.93-11.1A36.69,36.69,0,0,0,236.14,135.3Z"/><path class="cls-2" d="M171.23,138.57c-1.65,5-.47,10.17,2,15.32,3,6.24,6.75,12.2,8.83,18.9,2,6.42,2.73,12.9.27,19.42-2.55,6.76-7.74,10.19-14.52,11.64-7.07,1.5-13.83.05-20.31-2.64-7.75-3.22-15.47-6.56-22.5-11.27a24.74,24.74,0,0,1-5.84-5.71c-4.07-5.35-9.8-7.95-16-9.7-6.89-1.93-14-3.21-20.46-6.47-9.08-4.6-16.89-10.55-19-21.23a24.43,24.43,0,0,1,6.9-22.94,11.41,11.41,0,0,1,10-3.14,38.91,38.91,0,0,0,29.77-8.32,53.7,53.7,0,0,1,14.42-8.28c5.66-2.08,11.3-2.59,17,0,6.22,2.83,12.6,5.34,18.68,8.44,9.29,4.74,13,12.76,11.28,23C171.6,136.39,171.47,137.17,171.23,138.57ZM110.6,163.13c2.92.59,4.73-.3,5.21-2.56.69-3.22-1.79-6.09-6.08-6.85-2.18-.38-2.8,1.1-3.15,2.92C105.82,160.71,106.8,162.36,110.6,163.13Zm40.13-38.74c2.42.39,4.36-.9,4.69-3.1.29-1.93-1.42-4.84-3-5.1-2.54-.41-5.5,1.36-5.82,3.48C146.24,122,148,124,150.73,124.39Zm17.42,46.76a3.7,3.7,0,0,0-4.58,1.71c-1,1.76,1.1,2.39,2,3.43a8.28,8.28,0,0,0,1.07.89c2.12,1.76,3.51,1.41,4.71-1.06C172.23,174.24,171.15,171,168.15,171.15ZM152.44,159c.31-1.89-1.42-5.07-2.83-5a3.23,3.23,0,0,0-3.18,2.68c-.38,1.72,1.17,3.64,3.16,4C151,160.86,152.34,160.78,152.44,159Zm-18.32-44.37a21.37,21.37,0,0,0,1.64-8.67c0-.71-.09-1.45-1-1.59a.88.88,0,0,0-1.06.71C133.08,108.25,132.57,111.45,134.12,114.62ZM153,170.39a2.37,2.37,0,0,0-2.08-2.42c-.65-.12-1.62-.13-1.58.89.06,1.3.49,2.56,2,2.86C152.23,171.91,152.72,171.2,153,170.39Zm17.14-3.57c-.14-.71.22-1.89-1.21-2.17-1.19-.23-1.5.56-1.58,1.48-.09,1.09.22,2.08,1.38,2.36S170,167.85,170.16,166.82Zm7,11.17c.82,0,1.63-.34,1.75-1.17a1.75,1.75,0,0,0-1.44-2c-1-.24-1.47.49-1.61,1.24A1.63,1.63,0,0,0,177.11,178Zm-20-32.65c0-1.14.62-3-.41-3.16-1.42-.24-.9,1.75-1.38,2.7-.38.75-.29,1.9.71,2.1C157.26,147.22,156.77,145.91,157.13,145.34ZM88.35,162.1c-.32-.44.87-1.44-.55-1.73-1-.23-1.44.55-1.61,1.29s0,1.84,1,2S88.16,162.9,88.35,162.1ZM108.19,122c.41-1.2,1.25-2.07.48-3.17-.25-.36-.73-.21-1,.15C107,119.91,107.05,120.82,108.19,122Z"/><path class="cls-2" d="M174.14,91.27c2,.82,3.57.24,5.13-.18a1.87,1.87,0,0,0,1.5-2.5c-.4-1.2-1.48-1-2.38-.87a9,9,0,0,0-4.24,1.74,19.48,19.48,0,0,1-.62-8.07,45.8,45.8,0,0,1,7.23-21.48c.74-1.18,1.33-.79,2.07-.35,1.69,1,3.32,2.1,5,3.11.9.54,2.06,1.54,2.88.48s-.37-1.91-1.22-2.62c-1.69-1.41-3.34-2.85-5-4.27-.38-.32-1-.46-.39-1.17,5.25-6.43,10.79-12.54,19-15.19,8.06-2.61,15.23.74,19.07,8.62,2.49,5.11,2.81,10.56,2.44,16.11-.73,11-2.11,21.91-8.6,31.26-5.48,7.87-12.92,13.28-22.52,14.93-6.32,1.09-11.89-.8-15.62-7.13A28,28,0,0,1,174.14,91.27Z"/><path class="cls-2" d="M181.66,38.48a84.3,84.3,0,0,1-13.35,30.14c-3.7,5.35-7.54,10.58-13.24,14-12.74,7.76-28.15,0-29.42-14.78-1.31-15.2,4.33-27.63,15.45-37.75,5.34-4.86,10.81-9.55,17.9-11.82,5.79-1.85,11.45-1.49,16.6,1.62,5.35,3.23,7.15,8.5,6.72,14.57A38.66,38.66,0,0,1,181.66,38.48Zm-9.43-6c1.28-.08,2.65,0,2.93-1.48.25-1.28-.73-1.87-1.93-2.13a3.52,3.52,0,0,1-1.43-.72c-1.72-1.45-3.25-.11-4.81.31-.67.19-.69.9-.07,1.24C168.68,30.71,170.5,31.6,172.23,32.5Zm-17.9,8a9.45,9.45,0,0,0-.38-4.9c-.19-.53-.53-1.43-1.49-1.15-.74.21-.81.83-.84,1.51-.08,1.89-.19,3.78-.33,5.66-.06.74-.14,1.5.7,1.8s1.44-.45,1.8-1.12A8.93,8.93,0,0,0,154.33,40.5ZM140.79,69.63c0-1.41.06-3.46-1.71-3.71s-1.68,1.84-2,3.15A2.93,2.93,0,0,0,137,70c.09,1-.31,2.54.87,2.88,1.51.44,1.89-1.25,2.59-2.21A3.83,3.83,0,0,0,140.79,69.63Z"/><path class="cls-2" d="M117.78,63.78C116.14,73.1,114,82.29,110.17,91c-1.58,3.59-3.54,7-6.67,9.54-4.19,3.37-8.53,3-12.87.3a10.31,10.31,0,0,0-5.09-1.71c-3.22-.09-5.16-1.91-6.75-4.41A18.54,18.54,0,0,1,76,84.41c.19-11.8,2.43-23.2,8.54-33.46,3.68-6.18,9-10.64,16.42-11.76,10-1.52,20.3,5.87,18.17,16.9C118.61,58.64,118.22,61.21,117.78,63.78ZM103.49,91.11c-2,.82-2.91,1.85-3.1,3.47-.07.64.09,1.35.75,1.54s1-.46,1.18-.92C102.76,94,103,92.73,103.49,91.11Zm-.7-43.52c1.27-.06,2.69,0,3.41-1.35.31-.58-.3-1.06-.91-1.06-1.41,0-2.94.13-3.77,1.36C101.11,47.15,102.22,47.3,102.79,47.59Z"/><path class="cls-2" d="M236.14,135.3a36.69,36.69,0,0,1-4.95,14.78c-3.48,5.71-8.92,8.81-14.93,11.1a26.62,26.62,0,0,1-16.15,1.21c-11.68-2.87-15.49-14.06-12.36-23,3.78-10.81,11.57-18.38,20.71-24.73,6.09-4.23,12.63-7.47,20.12-8.46,4-.53,6.56.91,7.82,4.71a24.16,24.16,0,0,1,1.19,9.52C237.19,125.41,237.23,130.48,236.14,135.3Zm-15,4.26c-.2-1.49-.59-2.78-2.63-3.11-2.28-.36-2.69,1.23-3,2.7-.37,1.65.26,2.95,2.2,3.13S220.54,141.47,221.09,139.56Zm-3.59,14.06c1.43-.09,3.05-.14,3.34-2.06a2.91,2.91,0,0,0-2-3.25c-1.21-.43-3.29,1.55-3.46,3.19C215.19,153,216.34,153.25,217.5,153.62Zm-9.82-11.21c1.09,0,2.39.27,2.66-1.2.2-1.06-.73-1.54-1.65-1.58-1.3-.06-3.11-.46-3.47,1.12C205,141.84,206.66,142.08,207.68,142.41Z"/><path class="cls-1" d="M110.6,163.13c-3.8-.77-4.78-2.42-4-6.49.35-1.82,1-3.3,3.15-2.92,4.29.76,6.77,3.63,6.08,6.85C115.33,162.83,113.52,163.72,110.6,163.13Z"/><path class="cls-1" d="M150.73,124.39c-2.73-.43-4.49-2.44-4.13-4.72.32-2.12,3.28-3.89,5.82-3.48,1.58.26,3.29,3.17,3,5.1C155.09,123.49,153.15,124.78,150.73,124.39Z"/><path class="cls-1" d="M168.15,171.15c3-.12,4.08,3.09,3.18,5-1.2,2.47-2.59,2.82-4.71,1.06a8.28,8.28,0,0,1-1.07-.89c-.88-1-3-1.67-2-3.43A3.7,3.7,0,0,1,168.15,171.15Z"/><path class="cls-1" d="M152.44,159c-.1,1.79-1.4,1.87-2.85,1.63-2-.33-3.54-2.25-3.16-4a3.23,3.23,0,0,1,3.18-2.68C151,153.92,152.75,157.1,152.44,159Z"/><path class="cls-1" d="M134.12,114.62c-1.55-3.17-1-6.37-.44-9.55a.88.88,0,0,1,1.06-.71c.93.14,1,.88,1,1.59A21.37,21.37,0,0,1,134.12,114.62Z"/><path class="cls-1" d="M153,170.39c-.3.81-.79,1.52-1.69,1.33-1.48-.3-1.91-1.56-2-2.86,0-1,.93-1,1.58-.89A2.37,2.37,0,0,1,153,170.39Z"/><path class="cls-1" d="M170.16,166.82c-.17,1-.33,1.92-1.41,1.67s-1.47-1.27-1.38-2.36c.08-.92.39-1.71,1.58-1.48C170.38,164.93,170,166.11,170.16,166.82Z"/><path class="cls-1" d="M177.11,178a1.63,1.63,0,0,1-1.3-2c.14-.75.61-1.48,1.61-1.24a1.75,1.75,0,0,1,1.44,2C178.74,177.65,177.93,178,177.11,178Z"/><path class="cls-1" d="M157.13,145.34c-.36.57.13,1.88-1.08,1.64-1-.2-1.09-1.35-.71-2.1.48-.95,0-2.94,1.38-2.7C157.75,142.36,157.15,144.2,157.13,145.34Z"/><path class="cls-1" d="M88.35,162.1c-.19.8,0,1.79-1.11,1.59s-1.24-1.16-1-2,.56-1.52,1.61-1.29C89.22,160.66,88,161.66,88.35,162.1Z"/><path class="cls-1" d="M108.19,122c-1.14-1.16-1.16-2.07-.5-3,.25-.36.73-.51,1-.15C109.44,119.91,108.6,120.78,108.19,122Z"/><path class="cls-1" d="M172.23,32.5c-1.73-.9-3.55-1.79-5.31-2.78-.62-.34-.6-1,.07-1.24,1.56-.42,3.09-1.76,4.81-.31a3.52,3.52,0,0,0,1.43.72c1.2.26,2.18.85,1.93,2.13C174.88,32.47,173.51,32.42,172.23,32.5Z"/><path class="cls-1" d="M154.33,40.5a8.93,8.93,0,0,1-.54,1.8c-.36.67-.82,1.46-1.8,1.12s-.76-1.06-.7-1.8c.14-1.88.25-3.77.33-5.66,0-.68.1-1.3.84-1.51,1-.28,1.3.62,1.49,1.15A9.45,9.45,0,0,1,154.33,40.5Z"/><path class="cls-1" d="M140.79,69.63a3.83,3.83,0,0,1-.31,1c-.7,1-1.08,2.65-2.59,2.21-1.18-.34-.78-1.84-.87-2.88a2.93,2.93,0,0,1,.07-.93c.31-1.31.25-3.39,2-3.15S140.75,68.22,140.79,69.63Z"/><path class="cls-1" d="M103.49,91.11c-.45,1.62-.73,2.88-1.17,4.09-.16.46-.58,1.09-1.18.92s-.82-.9-.75-1.54C100.58,93,101.53,91.93,103.49,91.11Z"/><path class="cls-1" d="M102.79,47.59c-.57-.29-1.68-.44-1.27-1.05.83-1.23,2.36-1.34,3.77-1.36.61,0,1.22.48.91,1.06C105.48,47.6,104.06,47.53,102.79,47.59Z"/><path class="cls-1" d="M221.09,139.56c-.55,1.91-1.57,2.9-3.45,2.72s-2.57-1.48-2.2-3.13c.33-1.47.74-3.06,3-2.7C220.5,136.78,220.89,138.07,221.09,139.56Z"/><path class="cls-1" d="M217.5,153.62c-1.16-.37-2.31-.65-2.15-2.12.17-1.64,2.25-3.62,3.46-3.19a2.91,2.91,0,0,1,2,3.25C220.55,153.48,218.93,153.53,217.5,153.62Z"/><path class="cls-1" d="M207.68,142.41c-1-.33-2.71-.57-2.46-1.66.36-1.58,2.17-1.18,3.47-1.12.92,0,1.85.52,1.65,1.58C210.07,142.68,208.77,142.42,207.68,142.41Z"/></svg>